HIERARCHY
ROOT Bip001_Pelvis
{
  OFFSET 33.2923 95.8902 -28.781
  CHANNELS 6 Xposition Yposition Zposition Zrotation Xrotation Yrotation
  JOINT Bip001_Spine
  {
    OFFSET 1.4188e-005 10.2191 -0.0116013
    CHANNELS 3 Zrotation Xrotation Yrotation
    JOINT Bip001_L_Thigh
    {
      OFFSET 11.0458 -10.2192 0.0116197
      CHANNELS 3 Zrotation Xrotation Yrotation
      JOINT Bip001_L_Calf
      {
        OFFSET -0.707118 -44.0221 0.360014
        CHANNELS 3 Zrotation Xrotation Yrotation
        JOINT Bip001_L_Foot
        {
          OFFSET -0.651902 -40.5938 -3.56146
          CHANNELS 3 Zrotation Xrotation Yrotation
          JOINT Bip001_L_Toe0
          {
            OFFSET 0.0530839 -10.2181 13.1504
            CHANNELS 3 Zrotation Xrotation Yrotation
            End Site
            {
              OFFSET -1.02532e-005 0 7.55606
            }
          }
        }
      }
    }
    JOINT Bip001_R_Thigh
    {
      OFFSET -11.0458 -10.2191 0.0115893
      CHANNELS 3 Zrotation Xrotation Yrotation
      JOINT Bip001_R_Calf
      {
        OFFSET 0.706994 -44.0221 0.35984
        CHANNELS 3 Zrotation Xrotation Yrotation
        JOINT Bip001_R_Foot
        {
          OFFSET 0.651786 -40.5938 -3.5613
          CHANNELS 3 Zrotation Xrotation Yrotation
          JOINT Bip001_R_Toe0
          {
            OFFSET -0.0531479 -10.2181 13.1504
            CHANNELS 3 Zrotation Xrotation Yrotation
            End Site
            {
              OFFSET -1.02894e-005 0 7.55606
            }
          }
        }
      }
    }
    JOINT Bip001_Spine1
    {
      OFFSET 1.87041e-005 14.5736 1.08638
      CHANNELS 3 Zrotation Xrotation Yrotation
      JOINT Bip001_Spine2
      {
        OFFSET 2.24614e-005 14.5058 -1.69078
        CHANNELS 3 Zrotation Xrotation Yrotation
        JOINT Bip001_Neck
        {
          OFFSET 2.20278e-005 15.3945 -0.489414
          CHANNELS 3 Zrotation Xrotation Yrotation
          JOINT Bip001_L_Clavicle
          {
            OFFSET 6.06036 -0.000579998 0.00836775
            CHANNELS 3 Zrotation Xrotation Yrotation
            JOINT Bip001_L_UpperArm
            {
              OFFSET 11.5509 -0.0600302 0.00193952
              CHANNELS 3 Zrotation Xrotation Yrotation
              JOINT Bip001_L_Forearm
              {
                OFFSET 25.9523 0.0806089 -2.15551
                CHANNELS 3 Zrotation Xrotation Yrotation
                JOINT Bip001_L_Hand
                {
                  OFFSET 32.2476 0.153767 1.63968
                  CHANNELS 3 Zrotation Xrotation Yrotation
                  JOINT Bip001_L_Finger0
                  {
                    OFFSET 6.04639 -2.20976 5.90322
                    CHANNELS 3 Zrotation Xrotation Yrotation
                    End Site
                    {
                      OFFSET 4.22376 -1.43895 0.606486
                    }
                  }
                  JOINT Bip001_L_Finger1
                  {
                    OFFSET 11.0826 -0.704819 -0.198153
                    CHANNELS 3 Zrotation Xrotation Yrotation
                    End Site
                    {
                      OFFSET 6.20028 -0.397518 -0.0787166
                    }
                  }
                }
              }
            }
          }
          JOINT Bip001_R_Clavicle
          {
            OFFSET -6.06036 -0.000563197 0.00835105
            CHANNELS 3 Zrotation Xrotation Yrotation
            JOINT Bip001_R_UpperArm
            {
              OFFSET -11.5509 -0.0599978 0.00190698
              CHANNELS 3 Zrotation Xrotation Yrotation
              JOINT Bip001_R_Forearm
              {
                OFFSET -25.9523 0.080682 -2.1559
                CHANNELS 3 Zrotation Xrotation Yrotation
                JOINT Bip001_R_Hand
                {
                  OFFSET -32.2476 0.153858 1.63991
                  CHANNELS 3 Zrotation Xrotation Yrotation
                  JOINT Bip001_R_Finger0
                  {
                    OFFSET -6.04641 -2.20974 5.90321
                    CHANNELS 3 Zrotation Xrotation Yrotation
                    End Site
                    {
                      OFFSET -4.22376 -1.43894 0.606474
                    }
                  }
                  JOINT Bip001_R_Finger1
                  {
                    OFFSET -11.0826 -0.704789 -0.198184
                    CHANNELS 3 Zrotation Xrotation Yrotation
                    End Site
                    {
                      OFFSET -6.20028 -0.397501 -0.0787338
                    }
                  }
                }
              }
            }
          }
          JOINT Bip001_Head
          {
            OFFSET 1.09673e-005 11.2744 2.05948
            CHANNELS 3 Zrotation Xrotation Yrotation
            End Site
            {
              OFFSET 2.89576e-005 20.8808 -2.77728e-005
            }
          }
        }
      }
    }
  }
}
MOTION
Frames:	12
Frame Time:	0.04
31.7073 95.8935 -28.5198 1.20527 -1.53014 5.00731 -0.295342 3.0954 0.113162 5.54126 -3.34813 8.36932 -0.922774 7.01629 -16.4049 2.97569 -2.31102 -0.0806519 -3.40381 -3.56229 5.09539 -2.47908 -2.45403 0.501939 0.165352 10.785 -0.851468 -6.91497 -9.61906 -2.30775 2.05852 -7.28537 2.51732 -0.598482 6.19018 0.242751 -0.598309 6.19018 0.242816 1.93516 1.61045 -4.34734 -24.9944 -0.286858 -3.46928 -49.1956 38.6132 -2.08356 12.0787 -0.220373 -26.9555 9.12058 1.07583 -2.27619 0 0 -3.18055e-015 3.18055e-015 0 -0 26.5186 6.8306 19.0427 39.5788 -7.51412 0.607606 -33.1422 -12.2204 98.7658 -29.0283 7.81727 5.75015 6.36111e-015 -9.54166e-015 -3.18055e-015 6.36111e-015 -7.95139e-015 -1.59028e-015 -1.68979 14.8837 -3.00752 
31.4876 95.8857 -28.822 0.474945 -0.979805 5.95193 -0.152045 2.97571 0.0140667 6.46732 -4.89629 6.58043 -1.437 8.3593 -15.374 3.22349 -2.56005 -0.0824205 -3.3929 -3.58799 5.10233 -1.67965 -2.65155 0.683782 0.129721 9.98969 -0.988826 -7.12419 -8.97592 -3.08468 2.15404 -7.27287 2.15636 -0.299749 5.95134 0.0377595 -0.302574 5.95135 0.0366755 1.79551 1.66198 -4.34507 -24.8774 -0.351731 -3.39159 -49.0799 38.4334 -2.2481 11.9016 -0.896297 -27.0701 7.92327 0.928317 -2.24235 3.18055e-015 -3.18055e-015 3.18055e-015 3.18055e-015 -3.18056e-015 3.18055e-015 25.8802 7.10472 20.5011 39.6247 -9.15477 6.03913 -33.7842 -12.506 100.376 -36.6798 6.34801 6.94256 -6.36111e-015 1.11319e-014 -0 -6.36111e-015 9.54167e-015 3.18055e-015 -1.82955 14.8119 -3.00352 
31.4588 95.8865 -28.872 0.418974 -0.969274 6.07056 -0.138944 2.97306 0.0767454 6.53845 -4.97933 6.41318 -1.50421 8.37047 -15.4249 3.41417 -2.41324 -0.0927764 -3.33419 -3.73532 5.03538 -1.60875 -2.64969 0.628699 0.121059 9.93539 -0.992015 -7.13563 -8.90999 -3.1926 2.15398 -7.27571 2.1538 -0.282427 5.93455 0.161025 -0.282427 5.93456 0.161026 1.73377 1.85383 -4.37211 -24.8335 -0.552979 -3.37225 -48.9808 38.5305 -2.43127 11.8725 -1.03301 -27.1235 7.75865 1.0548 -2.19548 3.18055e-015 -6.36111e-015 -0 3.18055e-015 -6.36111e-015 -3.18055e-015 24.7501 7.16141 22.1768 40.323 -10.2242 12.2947 -35.7189 -11.6678 99.8348 -44.3599 4.03327 7.90043 -3.18055e-015 -1.59028e-014 3.18055e-015 -0 -9.54167e-015 -0 -2.14814 14.6297 -2.94159 
31.428 95.8937 -28.921 0.324677 -0.964444 6.08377 -0.127062 2.97175 0.156991 6.64861 -5.04065 6.31758 -1.56235 8.37648 -15.4264 3.56983 -2.28852 -0.095348 -3.24989 -3.84688 4.97762 -1.47047 -2.63843 0.746694 0.0728927 9.81086 -1.03061 -7.14537 -8.77685 -3.3335 2.15401 -7.27284 2.15394 -0.263497 5.93664 0.321354 -0.263497 5.93665 0.321352 1.66463 2.02417 -4.39389 -24.8769 -0.758565 -3.25659 -48.7596 38.7207 -2.6816 11.8388 -1.18273 -27.0458 7.67582 1.02004 -2.19148 3.18055e-015 -6.36111e-015 3.18055e-015 6.36111e-015 -6.36111e-015 3.18055e-015 23.2662 7.1464 24.0014 41.4057 -10.6881 19.0574 -38.0176 -9.74283 97.3468 -51.7086 1.94145 8.15112 0 0 -1.59028e-015 -3.18055e-015 0 -0 -2.50824 14.5435 -2.86123 
31.3676 95.8933 -28.9802 0.108857 -0.938482 6.24242 -0.0880457 2.97092 0.2107 6.91344 -5.33751 6.12964 -1.66646 8.71164 -15.4984 3.71079 -2.30813 -0.0973341 -3.25291 -3.93416 4.97997 -1.22533 -2.57773 0.76373 0.0374022 9.52708 -1.05431 -7.18531 -8.58274 -3.50486 2.15394 -7.27104 2.15338 -0.187361 5.93842 0.426827 -0.187361 5.93844 0.426827 1.40824 2.11147 -4.38759 -24.8304 -0.849114 -3.17293 -48.4097 38.6403 -2.86084 11.7398 -1.15509 -27.0062 7.89676 1.04536 -2.0806 -6.36111e-015 -3.18055e-015 3.18055e-015 -9.54166e-015 0 -0 21.3207 7.05773 26.1033 43.0873 -10.6742 26.1765 -40.8889 -6.62502 92.7527 -57.8464 0.466469 7.74893 -1.59028e-015 -6.36111e-015 3.18055e-015 -1.59028e-015 0 -0 -2.69454 14.4456 -2.87161 
31.3232 95.8916 -29.0035 0.0243461 -1.0228 6.30644 -0.0694451 2.98165 0.29503 7.0543 -5.37316 6.06784 -1.72197 8.84499 -15.555 3.59066 -2.45773 -0.0984658 -3.31996 -3.84253 5.04866 -1.09938 -2.47691 0.810432 0.0180818 9.42382 -1.05838 -7.20983 -8.47904 -3.64113 2.15393 -7.26855 2.1537 -0.157402 5.96292 0.596553 -0.15591 5.96292 0.595765 0.724032 2.2283 -4.21912 -24.318 -0.87582 -3.22911 -48.2087 38.4462 -3.03481 11.7054 -1.06535 -26.8082 7.83033 1.11223 -2.03607 -0 0 3.18055e-015 1.76556e-031 -3.18056e-015 3.18055e-015 20.1073 6.91613 27.9796 40.7685 -6.51615 31.4099 -45.3899 -6.63621 83.4772 -61.5722 -0.190331 7.77799 3.18055e-015 -3.18055e-015 -2.38542e-015 0 0 -7.95139e-016 -2.1444 14.6141 -3.10514 
31.4456 95.905 -28.816 0.514898 -1.57667 5.97819 -0.17312 3.10306 0.468705 6.49614 -4.28377 7.43582 -1.29862 8.00646 -16.7907 3.25852 -2.37562 -0.0880607 -3.34767 -3.70817 5.06753 -1.53234 -2.07826 0.484848 -0.0114981 9.80651 -1.00997 -7.10143 -8.84221 -3.28146 2.15444 -7.2596 2.16015 -0.379909 6.20451 0.948888 -0.376151 6.20458 0.949808 0.977499 2.61521 -4.34802 -24.6909 -1.32754 -3.16525 -48.0623 38.27 -3.2425 11.5949 -1.03315 -26.6018 7.98246 1.15932 -1.97009 3.18055e-015 0 -0 3.18055e-015 -6.36111e-015 -0 17.9698 6.42278 29.9823 38.1666 -2.7295 35.6963 -49.9293 -5.04355 73.8574 -74.1224 3.81563 5.33605 -5.96354e-016 -3.18055e-015 7.95139e-016 -1.19271e-015 -6.36111e-015 -9.93923e-016 -2.72072 14.0038 -2.96025 
31.1998 95.9025 -28.9145 -0.038845 -1.33002 6.52666 -0.075136 3.07605 0.521518 7.30366 -5.1505 6.8962 -1.63737 8.82818 -16.645 3.07498 -2.87662 -0.0661081 -3.45911 -3.38007 5.21285 -0.802902 -2.04384 0.959101 -0.0794707 9.0998 -1.14083 -7.31767 -8.27455 -4.1231 2.15686 -7.28585 2.17147 -0.173436 6.15122 1.04852 -0.176175 6.15124 1.04874 0.688604 2.33751 -4.50875 -24.5144 -1.20138 -2.63762 -47.8176 38.3603 -3.55669 11.5682 -1.05688 -26.4234 7.95875 1.20296 -1.92301 1.59028e-015 -3.18055e-015 3.18055e-015 -3.18055e-015 3.18056e-015 -0 17.7071 6.72202 30.5945 47.2302 -9.8401 38.1995 -49.5809 -1.81261 76.6544 -64.1509 0.122833 8.82852 7.95139e-016 3.18055e-015 7.95139e-016 7.95139e-016 -3.18056e-015 -7.95139e-016 -2.44729 14.1523 -3.30539 
31.07 95.8986 -28.9344 -0.150737 -1.27783 6.89858 -0.100244 3.01659 0.524321 7.5457 -5.3307 6.85372 -1.72333 8.95291 -17.1083 3.48722 -2.51903 -0.0870553 -3.37093 -3.75673 5.10895 -0.533983 -1.97653 1.03827 -0.0856636 8.99433 -1.16092 -7.43303 -8.15288 -4.50911 2.15002 -7.24258 2.14916 -0.228655 6.03219 1.05614 -0.228656 6.03217 1.05614 1.74752 3.17046 -4.95672 -25.249 -2.20711 -2.64141 -48.3513 37.5448 -3.02757 11.4965 -0.512688 -26.3995 7.99838 1.25685 -1.90915 -1.59028e-015 3.18055e-015 3.18055e-015 -1.59028e-015 0 -0 17.1354 5.97693 30.6083 46.6067 -9.9122 38.3705 -48.0558 -4.31857 76.3027 -60.3692 0.648735 8.76118 3.18055e-015 0 -0 0 0 -1.59028e-015 -3.58776 13.5317 -3.05413 
31.0819 95.9074 -28.9587 0.15331 -1.18477 7.05869 -0.16395 2.93733 0.426814 7.19768 -5.09286 6.85574 -1.60617 8.40533 -17.2278 3.44219 -2.15601 -0.102335 -3.3725 -3.76755 5.08708 -0.831614 -2.15418 1.0158 0.0110118 9.43233 -1.18201 -7.44037 -8.37843 -4.53652 2.03601 -7.18862 2.4516 -0.350533 5.87333 0.863775 -0.350533 5.87334 0.863774 1.74542 3.70961 -4.84379 -25.3406 -2.7251 -2.70645 -48.9456 36.9883 -2.29505 11.5779 0.520209 -26.0808 8.27943 1.34847 -2.22889 7.06225e-031 1.27222e-014 -3.18055e-015 1.59028e-015 1.27222e-014 -6.36111e-015 17.8074 5.461 29.9756 44.7111 -7.28766 39.7031 -49.2332 -5.60541 73.6467 -58.9096 1.9832 8.93433 2.64834e-031 9.54166e-015 -1.59028e-015 -8.82782e-032 6.36111e-015 7.95139e-016 -4.01587 13.5811 -2.7878 
31.1108 95.9203 -29.0006 0.388905 -1.16183 6.86063 -0.206105 2.9111 0.332342 6.88215 -4.80695 6.4971 -1.54369 7.88684 -16.6696 3.50996 -1.79501 -0.114849 -3.35458 -3.86062 5.07158 -1.10056 -2.40372 1.14431 0.0866147 9.91478 -1.07868 -7.40996 -8.54434 -4.43281 2.02306 -7.12527 2.40629 -0.429974 5.82092 0.676506 -0.429931 5.82092 0.676501 1.07483 3.52055 -4.33299 -24.792 -2.44259 -2.57968 -49.2672 37.9899 -1.79719 11.901 0.706646 -25.7279 7.59946 1.08055 -2.01628 -1.59028e-015 -3.18055e-015 1.59028e-015 -3.18055e-015 -3.18056e-015 -0 18.5272 5.76054 30.2028 43.5484 -8.1005 38.6011 -48.3281 -5.29442 74.8292 -58.5954 1.654 8.67297 1.59028e-015 0 -0 3.18055e-015 0 -3.18055e-015 -3.48652 13.9512 -2.67359 
31.0978 95.9105 -29.0565 0.288739 -1.18032 6.57984 -0.208926 2.89747 0.329058 6.95148 -4.82738 6.41984 -1.49667 8.01902 -16.3454 3.66207 -1.78601 -0.115716 -3.29088 -3.96285 5.05254 -1.05621 -2.50395 1.06574 0.122747 10.0089 -0.885677 -7.43866 -8.60031 -4.23198 1.99611 -7.05816 2.40138 -0.432662 5.7937 0.669918 -0.432358 5.79369 0.669984 0.763616 3.18661 -4.1056 -24.3807 -2.03188 -2.62207 -49.4314 39.6936 -1.37262 11.9712 -0.0501588 -25.3322 6.85892 1.23558 -1.63623 -3.18055e-015 3.18055e-015 1.59028e-015 -7.95139e-015 0 1.59028e-015 19.2543 6.20967 30.0711 42.3961 -8.71947 37.6614 -48.093 -4.29535 76.6996 -56.6765 0.690834 8.23489 0 0 -2.38542e-015 -1.59028e-015 3.18056e-015 -3.18055e-015 -2.74964 14.0746 -2.78961 
